<svg xmlns="http://www.w3.org/2000/svg" viewBox="0 0 500 480" width="500" height="480">
  <title>susurration.xyz vertical lockup</title>
  <desc>Vertical primary lockup, fully outlined paths.</desc>
  <g transform="translate(50 60) scale(1.0)">
<g transform="rotate(-6 64 76)"><path d="M280 -9Q226 -9 185.0 9.0Q144 27 120.0 59.5Q96 92 91 135H170Q177 102 205.5 82.0Q234 62 280 62H329Q382 62 409.5 85.5Q437 109 437 148Q437 185 413.0 208.0Q389 231 344 238L261 251Q183 264 143.5 301.0Q104 338 104 405Q104 478 151.5 518.5Q199 559 289 559H328Q406 559 453.5 522.0Q501 485 511 422H431Q425 452 398.5 470.0Q372 488 328 488H289Q236 488 210.0 466.5Q184 445 184 405Q184 369 206.0 350.5Q228 332 273 325L355 312Q437 299 477.0 260.5Q517 222 517 153Q517 78 469.0 34.5Q421 -9 329 -9Z" fill="#0E0E0C" opacity="0.18" transform="translate(58.00 78.00) scale(0.02200 -0.02200)"/></g>
<path d="M280 -9Q226 -9 185.0 9.0Q144 27 120.0 59.5Q96 92 91 135H170Q177 102 205.5 82.0Q234 62 280 62H329Q382 62 409.5 85.5Q437 109 437 148Q437 185 413.0 208.0Q389 231 344 238L261 251Q183 264 143.5 301.0Q104 338 104 405Q104 478 151.5 518.5Q199 559 289 559H328Q406 559 453.5 522.0Q501 485 511 422H431Q425 452 398.5 470.0Q372 488 328 488H289Q236 488 210.0 466.5Q184 445 184 405Q184 369 206.0 350.5Q228 332 273 325L355 312Q437 299 477.0 260.5Q517 222 517 153Q517 78 469.0 34.5Q421 -9 329 -9Z" fill="#0E0E0C" opacity="0.14" transform="translate(98.00 64.00) scale(0.01800 -0.01800)"/>
<g transform="rotate(4 326 68)"><path d="M280 -9Q226 -9 185.0 9.0Q144 27 120.0 59.5Q96 92 91 135H170Q177 102 205.5 82.0Q234 62 280 62H329Q382 62 409.5 85.5Q437 109 437 148Q437 185 413.0 208.0Q389 231 344 238L261 251Q183 264 143.5 301.0Q104 338 104 405Q104 478 151.5 518.5Q199 559 289 559H328Q406 559 453.5 522.0Q501 485 511 422H431Q425 452 398.5 470.0Q372 488 328 488H289Q236 488 210.0 466.5Q184 445 184 405Q184 369 206.0 350.5Q228 332 273 325L355 312Q437 299 477.0 260.5Q517 222 517 153Q517 78 469.0 34.5Q421 -9 329 -9Z" fill="#0E0E0C" opacity="0.16" transform="translate(318.00 68.00) scale(0.02000 -0.02000)"/></g>
<path d="M280 -9Q226 -9 185.0 9.0Q144 27 120.0 59.5Q96 92 91 135H170Q177 102 205.5 82.0Q234 62 280 62H329Q382 62 409.5 85.5Q437 109 437 148Q437 185 413.0 208.0Q389 231 344 238L261 251Q183 264 143.5 301.0Q104 338 104 405Q104 478 151.5 518.5Q199 559 289 559H328Q406 559 453.5 522.0Q501 485 511 422H431Q425 452 398.5 470.0Q372 488 328 488H289Q236 488 210.0 466.5Q184 445 184 405Q184 369 206.0 350.5Q228 332 273 325L355 312Q437 299 477.0 260.5Q517 222 517 153Q517 78 469.0 34.5Q421 -9 329 -9Z" fill="#0E0E0C" opacity="0.12" transform="translate(356.00 86.00) scale(0.01600 -0.01600)"/>
<g transform="rotate(-3 90 118)"><path d="M280 -9Q226 -9 185.0 9.0Q144 27 120.0 59.5Q96 92 91 135H170Q177 102 205.5 82.0Q234 62 280 62H329Q382 62 409.5 85.5Q437 109 437 148Q437 185 413.0 208.0Q389 231 344 238L261 251Q183 264 143.5 301.0Q104 338 104 405Q104 478 151.5 518.5Q199 559 289 559H328Q406 559 453.5 522.0Q501 485 511 422H431Q425 452 398.5 470.0Q372 488 328 488H289Q236 488 210.0 466.5Q184 445 184 405Q184 369 206.0 350.5Q228 332 273 325L355 312Q437 299 477.0 260.5Q517 222 517 153Q517 78 469.0 34.5Q421 -9 329 -9Z" fill="#0E0E0C" opacity="0.32" transform="translate(78.00 118.00) scale(0.03600 -0.03600)"/></g>
<path d="M280 -9Q226 -9 185.0 9.0Q144 27 120.0 59.5Q96 92 91 135H170Q177 102 205.5 82.0Q234 62 280 62H329Q382 62 409.5 85.5Q437 109 437 148Q437 185 413.0 208.0Q389 231 344 238L261 251Q183 264 143.5 301.0Q104 338 104 405Q104 478 151.5 518.5Q199 559 289 559H328Q406 559 453.5 522.0Q501 485 511 422H431Q425 452 398.5 470.0Q372 488 328 488H289Q236 488 210.0 466.5Q184 445 184 405Q184 369 206.0 350.5Q228 332 273 325L355 312Q437 299 477.0 260.5Q517 222 517 153Q517 78 469.0 34.5Q421 -9 329 -9Z" fill="#0E0E0C" opacity="0.26" transform="translate(128.00 92.00) scale(0.02800 -0.02800)"/>
<g transform="rotate(5 282 100)"><path d="M280 -9Q226 -9 185.0 9.0Q144 27 120.0 59.5Q96 92 91 135H170Q177 102 205.5 82.0Q234 62 280 62H329Q382 62 409.5 85.5Q437 109 437 148Q437 185 413.0 208.0Q389 231 344 238L261 251Q183 264 143.5 301.0Q104 338 104 405Q104 478 151.5 518.5Q199 559 289 559H328Q406 559 453.5 522.0Q501 485 511 422H431Q425 452 398.5 470.0Q372 488 328 488H289Q236 488 210.0 466.5Q184 445 184 405Q184 369 206.0 350.5Q228 332 273 325L355 312Q437 299 477.0 260.5Q517 222 517 153Q517 78 469.0 34.5Q421 -9 329 -9Z" fill="#0E0E0C" opacity="0.3" transform="translate(270.00 100.00) scale(0.03200 -0.03200)"/></g>
<path d="M280 -9Q226 -9 185.0 9.0Q144 27 120.0 59.5Q96 92 91 135H170Q177 102 205.5 82.0Q234 62 280 62H329Q382 62 409.5 85.5Q437 109 437 148Q437 185 413.0 208.0Q389 231 344 238L261 251Q183 264 143.5 301.0Q104 338 104 405Q104 478 151.5 518.5Q199 559 289 559H328Q406 559 453.5 522.0Q501 485 511 422H431Q425 452 398.5 470.0Q372 488 328 488H289Q236 488 210.0 466.5Q184 445 184 405Q184 369 206.0 350.5Q228 332 273 325L355 312Q437 299 477.0 260.5Q517 222 517 153Q517 78 469.0 34.5Q421 -9 329 -9Z" fill="#0E0E0C" opacity="0.28" transform="translate(320.00 124.00) scale(0.02800 -0.02800)"/>
<path d="M283 -8Q227 -8 185.5 9.5Q144 27 119.5 59.0Q95 91 90 135H180Q186 106 212.5 89.0Q239 72 283 72H325Q378 72 404.0 93.5Q430 115 430 151Q430 186 406.5 206.5Q383 227 337 234L263 246Q182 260 142.5 296.5Q103 333 103 403Q103 477 150.0 517.5Q197 558 291 558H329Q408 558 456.0 521.0Q504 484 514 421H424Q418 447 394.0 462.5Q370 478 329 478H291Q240 478 216.5 459.0Q193 440 193 402Q193 368 213.0 352.0Q233 336 276 329L350 317Q439 303 479.5 265.0Q520 227 520 155Q520 79 471.5 35.5Q423 -8 325 -8Z" fill="#0E0E0C" opacity="0.6" transform="translate(138.00 138.00) scale(0.05800 -0.05800)"/>
<g transform="rotate(-4 252 138)"><path d="M283 -8Q227 -8 185.5 9.5Q144 27 119.5 59.0Q95 91 90 135H180Q186 106 212.5 89.0Q239 72 283 72H325Q378 72 404.0 93.5Q430 115 430 151Q430 186 406.5 206.5Q383 227 337 234L263 246Q182 260 142.5 296.5Q103 333 103 403Q103 477 150.0 517.5Q197 558 291 558H329Q408 558 456.0 521.0Q504 484 514 421H424Q418 447 394.0 462.5Q370 478 329 478H291Q240 478 216.5 459.0Q193 440 193 402Q193 368 213.0 352.0Q233 336 276 329L350 317Q439 303 479.5 265.0Q520 227 520 155Q520 79 471.5 35.5Q423 -8 325 -8Z" fill="#0E0E0C" opacity="0.7" transform="translate(232.00 142.00) scale(0.06400 -0.06400)"/></g>
<path d="M281 -9Q222 -9 177.5 10.0Q133 29 107.5 62.5Q82 96 78 142H186Q190 115 215.0 98.5Q240 82 281 82H324Q373 82 398.0 102.0Q423 122 423 155Q423 187 400.5 205.5Q378 224 334 230L263 241Q175 255 133.5 291.5Q92 328 92 400Q92 476 141.5 517.5Q191 559 288 559H326Q412 559 463.5 519.5Q515 480 522 414H414Q410 438 387.5 453.0Q365 468 326 468H288Q241 468 219.5 450.5Q198 433 198 399Q198 369 217.0 354.0Q236 339 276 333L349 321Q442 308 485.5 269.5Q529 231 529 158Q529 79 477.5 35.0Q426 -9 324 -9Z" fill="#0E0E0C" transform="translate(172.00 156.00) scale(0.09200 -0.09200)"/>
</g>
  <path d="M695 1493H855L-3 -190H-163Z" fill="#0E0E0C" transform="translate(98.83 380.00) scale(0.02148 -0.02148)"/>
<path d="M71 307H177Q173 278 173 252Q173 70 420 70Q668 70 704 252Q707 270 707 302Q707 333 673.0 370.5Q639 408 496 457L371 502Q243 546 201.5 602.5Q160 659 160 724Q160 750 165 780Q194 926 317.0 1009.0Q440 1092 618 1092Q795 1092 981 1006L936 774H830Q834 797 834 817Q834 890 783.5 941.5Q733 993 616 993Q381 993 349 829Q345 812 345 782Q345 751 377.5 716.0Q410 681 537 639L674 594Q816 547 869 476Q906 426 906 377Q906 167 738 58Q606 -29 404.0 -29.0Q202 -29 23 59Z" fill="#0E0E0C" transform="translate(113.65 380.00) scale(0.02148 -0.02148)"/>
<path d="M1253 956H970Q1111 892 1152.0 768.5Q1193 645 1162 488Q1141 380 1079.0 281.0Q1017 182 923 109Q838 42 736.5 6.5Q635 -29 529 -29Q422 -29 335.5 6.0Q249 41 190 109Q123 184 99.0 281.0Q75 378 96 488Q127 645 216.0 768.5Q305 892 471 956H188L209 1063H654L633 956Q505 910 419.5 783.5Q334 657 304 504Q268 319 337.0 207.0Q406 95 553.0 95.0Q700 95 812 207Q925 319 960 504Q990 658 953.5 784.0Q917 910 808 956L829 1063H1274Z" fill="#0E0E0C" transform="translate(136.23 380.00) scale(0.02148 -0.02148)"/>
<path d="M71 307H177Q173 278 173 252Q173 70 420 70Q668 70 704 252Q707 270 707 302Q707 333 673.0 370.5Q639 408 496 457L371 502Q243 546 201.5 602.5Q160 659 160 724Q160 750 165 780Q194 926 317.0 1009.0Q440 1092 618 1092Q795 1092 981 1006L936 774H830Q834 797 834 817Q834 890 783.5 941.5Q733 993 616 993Q381 993 349 829Q345 812 345 782Q345 751 377.5 716.0Q410 681 537 639L674 594Q816 547 869 476Q906 426 906 377Q906 167 738 58Q606 -29 404.0 -29.0Q202 -29 23 59Z" fill="#0E0E0C" transform="translate(163.51 380.00) scale(0.02148 -0.02148)"/>
<path d="M106 551H899L900 559Q942 774 883 884Q823 993 665 993Q544 993 453 930Q364 866 309 741H161Q239 916 374 1004Q510 1092 703 1092Q936 1092 1047 938Q1159 785 1110 531Q1061 279 892.0 125.0Q723 -29 497 -29Q256 -29 156 120Q56 268 106 551ZM302 445Q272 259 327 164Q380 70 516 70Q643 70 734.5 165.0Q826 260 878 445Z" fill="#0E0E0C" transform="translate(186.09 380.00) scale(0.02148 -0.02148)"/>
<path d="M146 1051 244 1555H432L334 1051Z" fill="#0E0E0C" transform="translate(212.13 380.00) scale(0.02148 -0.02148)"/>
<path d="M1080 1065 1028 799H922Q925 819 925 836Q925 888 901 917Q870 956 795 956Q659 956 568.0 862.0Q477 768 443 592L328 0H144L330 958H154L174 1063H534L498 874Q573 985 668.5 1038.5Q764 1092 886 1092Q931 1092 979.0 1085.0Q1027 1078 1080 1065Z" fill="#0E0E0C" transform="translate(224.55 380.00) scale(0.02148 -0.02148)"/>
<path d="M300 408Q296 370 296 336Q296 242 330 180Q389 70 547 70Q663 70 720 105Q822 168 846 249H981Q941 122 792 33Q688 -29 482.0 -29.0Q276 -29 165 124Q87 231 87 386Q87 454 102 531Q151 784 320.0 938.0Q489 1092 729 1092Q1120 1092 1120 815Q1120 612 915 513Q706 412 300 408ZM813 632Q925 698 925 822Q925 993 698 993Q564 993 471.0 891.0Q378 789 321 514Q642 529 813 632Z" fill="#0E0E0C" transform="translate(245.58 380.00) scale(0.02148 -0.02148)"/>
<path d="M352 106H526L506 0H-28L-8 106H168L334 956H158L178 1063H712L692 960H518Z" fill="#0E0E0C" transform="translate(271.62 380.00) scale(0.02148 -0.02148)"/>
<path d="M308 -104Q303 -246 159 -362Q44 -455 -127 -455Q-199 -455 -261 -438Q-323 -422 -379 -389L-336 -170H-241Q-253 -266 -219 -311Q-185 -356 -103 -356Q-14 -356 43 -294Q118 -214 123 -104Q143 546 177 1208Q183 1351 325 1465Q440 1558 611 1558Q683 1558 746 1542Q807 1526 863 1492L820 1274H725Q737 1370 703 1414Q670 1460 588 1460Q497 1460 442 1398Q367 1317 362 1208Q327 545 308 -104Z" fill="#0E0E0C" transform="translate(285.70 380.00) scale(0.02148 -0.02148)"/>
<path d="M471 -319Q249 -210 171.0 26.5Q93 263 162 618Q231 974 401.0 1210.5Q571 1447 835 1556L816 1458Q642 1352 537.5 1159.5Q433 967 365 618Q297 270 326.5 77.5Q356 -115 490 -221Z" fill="#0E0E0C" transform="translate(297.64 380.00) scale(0.02148 -0.02148)"/>
<path d="M106 551H899L900 559Q942 774 883 884Q823 993 665 993Q544 993 453 930Q364 866 309 741H161Q239 916 374 1004Q510 1092 703 1092Q936 1092 1047 938Q1159 785 1110 531Q1061 279 892.0 125.0Q723 -29 497 -29Q256 -29 156 120Q56 268 106 551ZM302 445Q272 259 327 164Q380 70 516 70Q643 70 734.5 165.0Q826 260 878 445Z" fill="#0E0E0C" transform="translate(314.81 380.00) scale(0.02148 -0.02148)"/>
<path d="M-36 -319 -17 -221Q157 -115 262.0 77.5Q367 270 435 618Q503 967 473.0 1159.5Q443 1352 309 1458L328 1556Q551 1447 629.0 1210.5Q707 974 638 618Q569 263 399.0 26.5Q229 -210 -36 -319Z" fill="#0E0E0C" transform="translate(340.85 380.00) scale(0.02148 -0.02148)"/>
<path d="M144 0 330 956H154L174 1063H534L498 874Q570 982 662.0 1037.0Q754 1092 862 1092Q1038 1092 1102 991Q1140 930 1140 828Q1140 761 1123 676L1012 106H1176L1156 0H807L927 618Q947 721 947 790Q947 851 931 886Q897 958 776 958Q648 958 563.0 864.5Q478 771 443 592L328 0Z" fill="#0E0E0C" transform="translate(358.01 380.00) scale(0.02148 -0.02148)"/>
<path d="M695 1493H855L-3 -190H-163Z" fill="#0E0E0C" transform="translate(386.35 380.00) scale(0.02148 -0.02148)"/>
  <path d="M281 -9Q222 -9 177.5 10.0Q133 29 107.5 62.5Q82 96 78 142H186Q190 115 215.0 98.5Q240 82 281 82H324Q373 82 398.0 102.0Q423 122 423 155Q423 187 400.5 205.5Q378 224 334 230L263 241Q175 255 133.5 291.5Q92 328 92 400Q92 476 141.5 517.5Q191 559 288 559H326Q412 559 463.5 519.5Q515 480 522 414H414Q410 438 387.5 453.0Q365 468 326 468H288Q241 468 219.5 450.5Q198 433 198 399Q198 369 217.0 354.0Q236 339 276 333L349 321Q442 308 485.5 269.5Q529 231 529 158Q529 79 477.5 35.0Q426 -9 324 -9Z" fill="#0E0E0C" transform="translate(170.50 430.00) scale(0.01300 -0.01300)"/>
<path d="M299 -10Q200 -10 141.0 47.5Q82 105 82 204V550H190V204Q190 147 219.0 115.5Q248 84 299 84Q351 84 380.5 115.5Q410 147 410 204V550H518V204Q518 105 458.5 47.5Q399 -10 299 -10Z" fill="#0E0E0C" transform="translate(181.30 430.00) scale(0.01300 -0.01300)"/>
<path d="M281 -9Q222 -9 177.5 10.0Q133 29 107.5 62.5Q82 96 78 142H186Q190 115 215.0 98.5Q240 82 281 82H324Q373 82 398.0 102.0Q423 122 423 155Q423 187 400.5 205.5Q378 224 334 230L263 241Q175 255 133.5 291.5Q92 328 92 400Q92 476 141.5 517.5Q191 559 288 559H326Q412 559 463.5 519.5Q515 480 522 414H414Q410 438 387.5 453.0Q365 468 326 468H288Q241 468 219.5 450.5Q198 433 198 399Q198 369 217.0 354.0Q236 339 276 333L349 321Q442 308 485.5 269.5Q529 231 529 158Q529 79 477.5 35.0Q426 -9 324 -9Z" fill="#0E0E0C" transform="translate(192.10 430.00) scale(0.01300 -0.01300)"/>
<path d="M299 -10Q200 -10 141.0 47.5Q82 105 82 204V550H190V204Q190 147 219.0 115.5Q248 84 299 84Q351 84 380.5 115.5Q410 147 410 204V550H518V204Q518 105 458.5 47.5Q399 -10 299 -10Z" fill="#0E0E0C" transform="translate(202.90 430.00) scale(0.01300 -0.01300)"/>
<path d="M102 0V550H206V445H232L199 380Q199 469 238.0 514.5Q277 560 354 560Q442 560 493.5 505.5Q545 451 545 356V319H434V347Q434 406 404.5 437.5Q375 469 322 469Q269 469 239.5 437.0Q210 405 210 347V0Z" fill="#0E0E0C" transform="translate(213.70 430.00) scale(0.01300 -0.01300)"/>
<path d="M102 0V550H206V445H232L199 380Q199 469 238.0 514.5Q277 560 354 560Q442 560 493.5 505.5Q545 451 545 356V319H434V347Q434 406 404.5 437.5Q375 469 322 469Q269 469 239.5 437.0Q210 405 210 347V0Z" fill="#0E0E0C" transform="translate(224.50 430.00) scale(0.01300 -0.01300)"/>
<path d="M245 -10Q159 -10 109.5 34.5Q60 79 60 156Q60 234 112.5 278.5Q165 323 257 323H410V374Q410 419 382.0 444.0Q354 469 303 469Q258 469 228.0 449.5Q198 430 193 398H87Q96 472 155.5 516.0Q215 560 306 560Q404 560 461.0 510.5Q518 461 518 376V0H413V101H395L413 121Q413 61 367.0 25.5Q321 -10 245 -10ZM277 73Q335 73 372.5 102.5Q410 132 410 178V250H259Q217 250 192.5 227.0Q168 204 168 164Q168 122 197.0 97.5Q226 73 277 73Z" fill="#0E0E0C" transform="translate(235.30 430.00) scale(0.01300 -0.01300)"/>
<path d="M360 0Q285 0 243.0 41.0Q201 82 201 155V452H49V550H201V705H309V550H524V452H309V155Q309 98 364 98H514V0Z" fill="#0E0E0C" transform="translate(246.10 430.00) scale(0.01300 -0.01300)"/>
<path d="M81 0V98H274V452H106V550H379V98H556V0ZM316 645Q281 645 260.0 663.5Q239 682 239 713Q239 745 260.0 763.5Q281 782 316 782Q351 782 372.0 763.5Q393 745 393 713Q393 682 372.0 663.5Q351 645 316 645Z" fill="#0E0E0C" transform="translate(256.90 430.00) scale(0.01300 -0.01300)"/>
<path d="M300 -9Q232 -9 182.0 17.0Q132 43 105.0 91.0Q78 139 78 204V346Q78 412 105.0 459.5Q132 507 182.0 533.0Q232 559 300 559Q368 559 418.0 533.0Q468 507 495.0 459.5Q522 412 522 346V204Q522 139 495.0 91.0Q468 43 418.0 17.0Q368 -9 300 -9ZM300 86Q355 86 385.0 116.5Q415 147 415 204V346Q415 404 385.0 434.0Q355 464 300 464Q246 464 215.5 434.0Q185 404 185 346V204Q185 147 215.5 116.5Q246 86 300 86Z" fill="#0E0E0C" transform="translate(267.70 430.00) scale(0.01300 -0.01300)"/>
<path d="M84 0V550H191V445H217L191 420Q191 486 230.0 523.0Q269 560 338 560Q420 560 469.0 507.5Q518 455 518 366V0H410V354Q410 408 381.0 437.0Q352 466 302 466Q251 466 221.5 435.5Q192 405 192 347V0Z" fill="#0E0E0C" transform="translate(278.50 430.00) scale(0.01300 -0.01300)"/>
<path d="M300 -10Q260 -10 236.0 13.5Q212 37 212 77Q212 118 236.0 142.5Q260 167 300 167Q341 167 364.5 142.5Q388 118 388 77Q388 37 364.5 13.5Q341 -10 300 -10Z" fill="#0E0E0C" transform="translate(289.30 430.00) scale(0.01300 -0.01300)"/>
<path d="M43 0 236 284 55 550H179L276 398Q283 386 290.0 372.5Q297 359 301 350Q304 359 311.0 372.5Q318 386 325 398L422 550H546L365 283L557 0H433L326 165Q319 177 312.0 192.0Q305 207 301 216Q297 207 289.5 192.0Q282 177 274 165L166 0Z" fill="#0E0E0C" transform="translate(300.10 430.00) scale(0.01300 -0.01300)"/>
<path d="M172 -180 251 32 46 550H165L280 240Q287 220 294.0 192.0Q301 164 306 146Q310 164 317.0 192.0Q324 220 331 240L439 550H554L286 -180Z" fill="#0E0E0C" transform="translate(310.90 430.00) scale(0.01300 -0.01300)"/>
<path d="M84 0V102L381 454H93V550H505V448L204 96H516V0Z" fill="#0E0E0C" transform="translate(321.70 430.00) scale(0.01300 -0.01300)"/>
</svg>